# Blender v2.79 (sub 0) OBJ File: 'norvedem.blend'
# www.blender.org
mtllib norvedem-sock.mtl
g norvedem-sock
v -2.100003 -21.350004 1.168303
v -3.649896 3.525137 1.168303
v 5.373466 -0.072663 1.168303
v 1.441300 -7.060364 1.168303
v 2.165636 -13.523932 1.168302
v 1.921806 -19.739407 2.958554
v 2.691988 -1.452556 2.174474
v -2.833420 0.581036 2.367690
v -2.308090 -17.779322 3.150417
v -0.865302 -10.759485 2.703217
v -7.300545 -13.092462 3.025207
v -8.062328 -10.160042 2.703217
v -6.697561 -7.190415 2.703217
v -4.065038 -3.180175 2.642595
v -0.405131 -0.295424 2.625127
v -0.073014 -6.420746 2.703217
v 2.892476 -16.662136 3.189923
v 0.784122 -13.727927 2.913949
v 0.104523 -17.246359 3.543745
v -3.195014 -13.489191 3.639732
v -2.179626 -5.100655 3.200592
v -4.396884 -10.995013 3.240576
v -4.131977 -8.903552 3.240576
v 5.489648 -19.474871 1.168303
v 0.686203 -10.561081 1.168303
v -10.450150 -13.745440 1.168303
v -10.765275 -8.728913 1.168303
v -7.772931 -5.843907 1.168303
v -5.217747 -1.859780 1.168303
v 4.582726 -16.417538 1.168303
v 0.780565 -22.869690 1.168303
v -7.545888 -14.851226 1.168303
v -3.806296 -18.242262 1.168303
v -11.666722 -11.660781 1.168303
v 4.211614 -22.132359 1.168303
v 0.691940 2.763756 0.720404
v -2.221611 -5.083131 0.133116
v -3.937161 -9.660489 0.049738
v -3.003963 -13.455484 0.097422
v 1.919777 -19.737411 0.589954
v 0.171977 1.399567 1.901269
v -2.067070 2.358884 1.572159
v 3.576552 0.112410 1.665890
v -3.398501 -1.356269 2.585377
v -1.089442 -2.220029 2.933830
v 1.434992 -3.177077 2.402779
v 3.392060 -3.910389 1.156526
v -5.036298 -0.741638 1.156526
v -1.090571 -2.218558 0.314776
v 3.227965 -3.885350 1.168303
v -3.326304 -1.418796 2.550980
v 1.345571 -3.176957 2.372074
v -4.915250 -0.820829 1.168303
v -1.098801 -2.257068 2.891746
v -1.095834 -2.256594 0.368384
v -1.036853 -2.066534 0.258661
v 1.546468 -3.083121 2.423731
v -1.054512 -2.117729 2.962403
v -3.423243 -1.260123 2.605532
v 3.556624 -3.850026 1.142384
v -5.110536 -0.581113 1.142384
v 3.227965 -3.885350 1.168303
v -1.095834 -2.256594 0.368384
v -4.915250 -0.820829 1.168303
v 1.345571 -3.176957 2.372074
v -1.098801 -2.257068 2.891746
v -3.326304 -1.418796 2.550980
v -4.633262 1.247929 1.154249
v 4.517245 -2.151008 1.154984
v 3.960414 1.115359 0.785494
v -0.379138 -0.223535 0.310238
v 1.917088 -3.353707 0.621765
v 2.045184 -3.263183 0.590889
v 1.805257 -3.349425 0.650633
v 2.906135 -1.516789 0.553261
v -1.704433 3.389083 0.807501
v -3.407211 -1.351418 0.577840
v -3.338312 -1.413617 0.609871
v -3.428620 -1.194404 0.543747
v -2.876848 0.640402 0.518609
v 5.130396 -0.158535 1.360263
v 3.181076 -3.831334 1.428668
v 3.025031 -3.808981 1.434087
v 3.339916 -3.767351 1.419873
v 4.320473 -2.075713 1.403135
v 3.202693 -3.838917 0.951972
v 5.232817 0.170656 0.986631
v 3.362574 -3.774684 0.934141
v 3.045306 -3.816543 0.967697
v 4.310399 -2.069580 0.941386
v -3.560022 3.306570 1.349591
v -4.895012 -0.794658 1.425165
v -4.778179 -0.872415 1.431083
v -4.964979 -0.639688 1.415632
v -4.477994 1.190398 1.404786
v -3.490362 3.568655 1.038494
v -4.920356 -0.785036 1.002875
v -4.508261 1.204694 0.996175
v -4.803023 -0.863017 1.017545
v -4.990838 -0.624761 0.986038
v -3.490362 3.568655 1.038494
v -3.649896 3.525137 1.168303
v 5.232817 0.170656 0.986631
v 5.373466 -0.072663 1.168303
v -3.560022 3.306570 1.349591
v -2.067070 2.358884 1.572159
v 5.130396 -0.158535 1.360263
v 0.171977 1.399567 1.901269
v 3.576552 0.112410 1.665890
v 0.691940 2.763756 0.720404
v 3.960414 1.115359 0.785494
v -1.704433 3.389083 0.807501
v -3.518234 3.421742 1.130570
v -1.885751 2.790469 1.079589
v 0.431960 1.879484 1.078327
v 3.768484 0.490282 1.105428
v 5.181606 -0.020661 1.140041
v 2.616000 -22.884731 1.168303
v 1.686745 -14.993516 3.092413
v -4.058216 -15.640738 3.326889
v -1.445321 -15.287837 3.711763
v -5.336350 -16.286942 1.168303
v -1.640150 -15.585449 0.206868
v -11.535755 -9.994995 1.168303
v 3.330215 -14.974732 1.168302
v -0.555411 -20.611319 2.542352
v 4.015491 -19.407290 2.676362
v 1.013165 -18.492884 3.351141
v 5.347950 -17.860271 1.168303
v -3.086382 -19.912710 1.168303
v -1.431750 -19.195322 2.987350
v 3.670487 -17.968098 3.044200
v -0.826260 -22.293041 1.168303
v 5.083789 -20.953503 1.168303
v -0.340364 -12.263692 2.725214
v -8.141088 -11.786132 2.830878
v -4.075737 -12.222115 3.440154
v -11.258285 -12.823017 1.168303
v 1.066192 -12.018526 1.168302
v -0.796910 -8.426237 2.703217
v -5.309353 -5.185295 2.703217
v -3.203765 -6.930156 3.260571
v -6.303485 -4.067686 1.168303
v 0.751987 -8.762756 1.168303
v -4.778179 -0.872415 1.431083
v 3.025031 -3.808976 1.434087
v -0.218425 -17.349430 0.303336
v 0.925032 -18.602041 0.431491
v -3.698355 -11.727907 0.049738
v -3.128963 -7.213916 0.050090
v 1.805257 -3.349425 0.650633
v 3.045306 -3.816543 0.967697
v -4.803025 -0.863017 1.017545
v -3.338312 -1.413623 0.609871
vt 0.289204 0.385044
vt 0.153801 0.345099
vt 0.169211 0.284860
vt 0.707328 0.440773
vt 0.703427 0.341750
vt 0.772939 0.408990
vt 0.617094 0.519027
vt 0.595829 0.419606
vt 0.652227 0.475855
vt 0.359181 0.195535
vt 0.354215 0.292011
vt 0.234254 0.221061
vt 0.459573 0.161397
vt 0.502815 0.240851
vt 0.307981 0.327504
vt 0.196265 0.247348
vt 0.599249 0.746617
vt 0.601828 0.749330
vt 0.529031 0.749330
vt 0.529031 0.746617
vt 0.593457 0.566910
vt 0.586008 0.627050
vt 0.509960 0.622184
vt 0.518502 0.546639
vt 0.262619 0.746617
vt 0.324196 0.746617
vt 0.324196 0.749330
vt 0.259998 0.749330
vt 0.246925 0.619924
vt 0.317907 0.590429
vt 0.332288 0.673894
vt 0.258032 0.706421
vt 0.648041 0.146678
vt 0.724266 0.207725
vt 0.673749 0.240937
vt 0.595200 0.185174
vt 0.163399 0.399266
vt 0.298578 0.504596
vt 0.222612 0.540015
vt 0.912155 0.110031
vt 0.854166 0.213629
vt 0.776360 0.173922
vt 0.862318 0.054725
vt 0.791248 0.023519
vt 0.700849 0.104882
vt 0.813317 0.257214
vt 0.925798 0.236228
vt 0.899865 0.300617
vt 0.592976 0.289134
vt 0.764352 0.296365
vt 0.414819 0.746617
vt 0.414819 0.749330
vt 0.458978 0.364764
vt 0.430689 0.404351
vt 0.410824 0.480601
vt 0.414058 0.560334
vt 0.553690 0.465799
vt 0.603321 0.828090
vt 0.603321 0.915437
vt 0.529031 0.915437
vt 0.529031 0.828090
vt 0.336739 0.746617
vt 0.334118 0.749330
vt 0.414819 0.749330
vt 0.414819 0.746617
vt 0.508939 0.326274
vt 0.590712 0.267818
vt 0.787205 0.159641
vt 0.420245 0.635686
vt 0.417620 0.552477
vt 0.718466 0.017738
vt 0.422968 0.455092
vt 0.929159 0.170481
vt 0.601762 0.755778
vt 0.615603 0.755778
vt 0.612617 0.749330
vt 0.600269 0.749330
vt 0.846520 0.361700
vt 0.670907 0.224408
vt 0.460498 0.381686
vt 0.414819 0.755778
vt 0.529031 0.755778
vt 0.414819 0.828090
vt 0.414819 0.915437
vt 0.324196 0.915437
vt 0.324196 0.828090
vt 0.324196 0.755778
vt 0.258875 0.755778
vt 0.249863 0.755778
vt 0.249863 0.828090
vt 0.258875 0.828090
vt 0.535109 0.743709
vt 0.607459 0.746617
vt 0.597690 0.746617
vt 0.325728 0.743709
vt 0.418898 0.743709
vt 0.512782 0.743709
vt 0.418898 0.743709
vt 0.421894 0.634955
vt 0.334211 0.743709
vt 0.261541 0.749330
vt 0.253417 0.749330
vt 0.258221 0.755778
vt 0.603321 0.755778
vt 0.601762 0.915437
vt 0.615603 0.915437
vt 0.615603 0.828090
vt 0.601762 0.828090
vt 0.258221 0.915437
vt 0.258221 0.828090
vt 0.249863 0.915437
vt 0.258875 0.915437
vt 0.414819 0.828090
vt 0.541432 0.828090
vt 0.541432 0.755778
vt 0.414819 0.755778
vt 0.414819 0.915437
vt 0.541432 0.915437
vt 0.541432 0.749330
vt 0.541432 0.746617
vt 0.332341 0.828090
vt 0.332341 0.915437
vt 0.332341 0.755778
vt 0.265472 0.746617
vt 0.258658 0.746617
vt 0.247341 0.991813
vt 0.254589 0.982200
vt 0.258000 0.991813
vt 0.349779 0.967953
vt 0.469767 0.960138
vt 0.469767 0.991813
vt 0.350155 0.991814
vt 0.650277 0.961473
vt 0.646841 0.991813
vt 0.731494 0.979082
vt 0.725984 0.991813
vt 0.741968 0.991813
vt 0.733708 0.966388
vt 0.652753 0.929608
vt 0.469767 0.922922
vt 0.349138 0.941298
vt 0.250092 0.969242
vt 0.655594 0.378284
vt 0.507041 0.330870
vt 0.540367 0.116875
vt 0.594061 0.067858
vt 0.652137 0.030521
vt 0.258658 0.743709
vt 0.268054 0.743709
vt 0.591772 0.743709
vt 0.580785 0.743709
vt 0.732299 0.192425
vt 0.583035 0.743709
vt 0.263895 0.743709
vn -0.3043 0.1494 0.9408
vn -0.9543 0.2735 -0.1200
vn -0.9875 -0.0896 -0.1299
vn 0.7543 0.5443 -0.3671
vn 0.4296 0.3526 0.8313
vn 0.7323 0.5680 -0.3756
vn 0.9505 0.0955 -0.2956
vn 0.4150 0.2993 0.8592
vn 0.8391 0.4177 -0.3483
vn -0.5062 -0.7932 -0.3384
vn -0.3128 -0.2833 0.9066
vn -0.6405 -0.7418 -0.1986
vn -0.6376 -0.6798 -0.3624
vn -0.3691 -0.3567 0.8582
vn -0.3132 0.0074 0.9496
vn -0.8864 -0.4356 -0.1563
vn -0.1271 -0.9317 0.3402
vn 0.1062 -0.8365 0.5375
vn 0.0185 -0.6704 0.7417
vn -0.1535 -0.8149 0.5589
vn 0.9379 -0.2025 -0.2817
vn 0.8660 -0.4289 -0.2570
vn 0.4089 -0.1479 0.9005
vn 0.4210 -0.0948 0.9021
vn -0.5426 -0.7991 0.2587
vn -0.4139 -0.7347 0.5375
vn -0.4749 -0.5226 0.7080
vn -0.6942 -0.5740 0.4343
vn -0.8048 0.5242 -0.2784
vn -0.3830 0.2572 0.8872
vn -0.3751 0.2185 0.9008
vn -0.9243 0.2705 -0.2691
vn -0.3432 -0.3475 0.8726
vn 0.0365 -0.1904 0.9810
vn 0.0186 -0.0733 0.9971
vn -0.3932 -0.3317 0.8575
vn -0.8224 0.5471 -0.1559
vn -0.3420 0.2329 0.9104
vn -0.7752 0.5835 -0.2419
vn 0.5810 -0.7958 -0.1707
vn 0.4646 -0.2206 0.8576
vn 0.0936 -0.3600 0.9282
vn 0.2123 -0.9662 -0.1460
vn -0.1219 -0.9767 -0.1769
vn -0.2189 -0.4705 0.8548
vn 0.4819 0.0630 0.8739
vn 0.9519 -0.0983 -0.2901
vn 0.9259 0.2266 -0.3021
vn 0.0260 0.0263 0.9993
vn 0.4358 0.2509 0.8643
vn -0.2555 -0.7428 0.6188
vn -0.1705 -0.5152 0.8399
vn 0.0003 0.1222 0.9925
vn -0.0075 0.0703 0.9975
vn -0.0139 0.0215 0.9997
vn 0.0035 0.0265 0.9996
vn 0.4202 0.0818 0.9037
vn 0.5375 -0.2213 0.8137
vn 0.5620 -0.1804 0.8072
vn 0.2721 0.1100 0.9559
vn 0.2880 0.0345 0.9570
vn -0.3570 -0.7294 -0.5835
vn -0.3487 -0.5149 -0.7831
vn -0.2054 -0.5297 -0.8229
vn -0.2760 -0.7411 -0.6120
vn 0.0138 -0.0578 -0.9982
vn -0.0127 -0.0511 -0.9986
vn 0.0538 -0.0858 -0.9948
vn 0.0009 0.0161 -0.9998
vn 0.0208 0.0333 -0.9992
vn -0.4462 -0.8597 -0.2484
vn 0.0163 0.0273 -0.9995
vn 0.8564 -0.4498 -0.2536
vn 0.3326 -0.4831 -0.8099
vn 0.6922 -0.7199 -0.0506
vn 0.1975 -0.9803 -0.0071
vn 0.0063 -0.7950 -0.6065
vn 0.8000 0.4955 -0.3384
vn -0.0099 -0.0360 -0.9993
vn 0.0322 -0.0285 -0.9991
vn -0.0028 -0.0716 0.9974
vn 0.2471 -0.2417 0.9384
vn 0.0931 0.2251 0.9698
vn 0.1158 0.3318 0.9362
vn -0.0948 0.3403 0.9355
vn -0.1924 0.2706 0.9433
vn -0.4083 -0.0328 0.9122
vn -0.6138 -0.1049 -0.7824
vn -0.9962 -0.0441 -0.0745
vn -0.9429 0.3290 -0.0520
vn -0.4963 0.1881 -0.8475
vn 0.1718 -0.1076 -0.9792
vn -0.1493 -0.9888 -0.0035
vn -0.1705 -0.8714 -0.4600
vn -0.2257 0.0450 -0.9731
vn 0.0237 0.0735 -0.9970
vn 0.3474 -0.0520 0.9363
vn 0.0508 0.0738 0.9960
vn 0.0387 0.0483 0.9981
vn -0.3316 0.2033 0.9212
vn -0.5609 -0.5771 -0.5936
vn -0.8070 -0.5890 -0.0425
vn -0.7706 -0.0538 0.6350
vn 0.4496 -0.5150 0.7298
vn 0.3659 -0.1095 -0.9242
vn 0.8579 -0.3435 -0.3820
vn 0.9007 -0.4318 -0.0479
vn 0.4340 -0.1931 -0.8799
vn -0.5439 0.3231 0.7744
vn -0.5941 0.2701 0.7576
vn -0.8661 0.3831 -0.3211
vn -0.3730 0.2057 -0.9047
vn 0.0135 0.0551 -0.9984
vn 0.1462 -0.0244 -0.9890
vn 0.0937 -0.2329 -0.9680
vn -0.0594 -0.1423 -0.9880
vn 0.0308 0.1059 -0.9939
vn 0.1362 0.0341 -0.9901
vn -0.0874 -0.6084 -0.7888
vn -0.2126 -0.7649 -0.6081
vn -0.1367 0.0930 -0.9862
vn -0.0859 0.1328 -0.9874
vn -0.2346 -0.0992 -0.9670
vn -0.4597 -0.7753 -0.4331
vn -0.5474 -0.8366 -0.0182
vn 0.5877 0.5230 0.6173
vn 0.4428 0.5911 0.6742
vn 0.3160 0.4407 0.8401
vn 0.2141 0.5513 0.8064
vn 0.2261 0.5763 0.7853
vn 0.1435 0.3595 0.9220
vn 0.1431 0.3609 0.9215
vn 0.2322 0.6077 0.7595
vn 0.1617 0.4032 0.9007
vn 0.1571 0.6814 0.7148
vn 0.1415 0.4978 0.8557
vn 0.1013 0.7370 0.6682
vn 0.2259 0.7843 0.5778
vn 0.2918 0.7613 0.5789
vn 0.2903 0.7528 0.5907
vn 0.2777 0.7192 0.6369
vn 0.4732 0.7393 0.4790
vn 0.4284 0.4039 0.8083
vn 0.0106 0.1013 0.9948
vn -0.7467 -0.5672 -0.3475
vn -0.7624 -0.5813 -0.2842
vn -0.6520 -0.7120 -0.2605
vn -0.9571 0.2787 -0.0793
vn -0.7345 0.2188 0.6423
vn 0.8708 -0.4900 -0.0407
vn 0.6032 -0.2946 0.7412
vn 0.0166 -0.0487 -0.9987
vn 0.4340 -0.2678 -0.8601
vn -0.5271 0.0915 -0.8449
usemtl sock4
s 1
f 12/1/1 124/2/2 34/3/3
f 5/4/4 119/5/5 125/6/6
f 25/7/7 135/8/8 139/9/9
f 32/10/10 11/11/11 26/12/12
f 122/13/13 120/14/14 11/11/11 32/10/10
f 136/15/15 34/3/3 138/16/16
f 83/17/17 82/18/18 46/19/19 65/20/20
f 144/21/21 4/22/22 16/23/23 140/24/24
f 93/25/25 67/26/26 44/27/27 92/28/28
f 143/29/29 141/30/30 14/31/31 29/32/32
f 131/33/33 128/34/34 19/35/35 9/36/36
f 27/37/37 12/1/1 13/38/38 28/39/39
f 35/40/40 127/41/41 6/42/42
f 118/43/43 6/42/42 31/44/44
f 31/44/44 6/42/42 126/45/45
f 132/46/46 127/41/41 24/47/47 129/48/48
f 120/14/14 9/36/36 19/35/35 121/49/49
f 119/5/5 121/49/49 19/35/35 17/50/50
f 67/26/26 66/51/51 45/52/52 44/27/27
f 65/20/20 46/19/19 45/52/52 66/51/51
f 11/11/11 137/53/53 136/15/15
f 13/38/38 12/1/1 22/54/54 23/55/55
f 141/30/30 13/38/38 23/55/55 142/56/56
f 22/54/54 10/57/57 23/55/55
f 140/24/24 142/56/56 23/55/55 10/57/57
f 85/58/58 107/59/59 109/60/60 7/61/61
f 78/62/62 77/63/63 49/64/64 63/65/65
f 39/66/66 123/67/67 122/13/13 32/10/10
f 40/68/68 118/43/43 31/44/44
f 37/69/69 150/70/70 143/29/29 29/32/32
f 133/71/71 40/68/68 31/44/44
f 124/2/2 38/72/72 34/3/3
f 27/37/37 28/39/39 150/70/70 38/72/72
f 40/68/68 134/73/73 35/40/40
f 88/74/74 60/75/75 47/76/76 86/77/77
f 25/7/7 38/72/72 150/70/70 144/21/21
f 125/6/6 30/78/78 147/79/79 123/67/67
f 39/66/66 149/80/80 139/9/9 5/4/4
f 58/81/81 57/82/82 7/61/61 15/83/83
f 108/84/84 106/85/85 8/86/86 15/83/83
f 109/60/60 108/84/84 15/83/83 7/61/61
f 59/87/87 58/81/81 15/83/83 8/86/86
f 100/88/88 61/89/89 68/90/90 98/91/91
f 4/22/22 37/69/69 151/92/92
f 86/77/77 47/76/76 62/93/93 89/94/94
f 154/95/95 55/96/96 37/69/69
f 16/23/23 52/97/97 54/98/98 21/99/99
f 14/31/31 21/99/99 54/98/98 51/100/100
f 97/101/101 48/102/102 61/89/89 100/88/88
f 92/28/28 44/27/27 59/87/87 94/103/103
f 44/27/27 45/52/52 58/81/81 59/87/87
f 82/18/18 47/76/76 60/75/75 84/104/104
f 45/52/52 46/19/19 57/82/82 58/81/81
f 103/105/105 104/106/106 69/107/107 90/108/108
f 105/109/109 95/110/110 8/86/86 106/85/85
f 84/104/104 85/58/58 7/61/61 57/82/82
f 94/103/103 59/87/87 8/86/86 95/110/110
f 98/91/91 68/90/90 102/111/111 101/112/112
f 90/108/108 69/107/107 60/75/75 88/74/74
f 71/113/113 75/114/114 73/115/115 56/116/116
f 110/117/117 111/118/118 75/114/114 71/113/113
f 49/64/64 72/119/119 74/120/120 63/65/65
f 56/116/116 73/115/115 72/119/119 49/64/64
f 71/113/113 80/121/121 112/122/122 110/117/117
f 49/64/64 77/63/63 79/123/123 56/116/116
f 56/116/116 79/123/123 80/121/121 71/113/113
f 99/124/124 97/101/101 77/63/63 78/62/62
f 60/75/75 69/107/107 85/58/58 84/104/104
f 46/19/19 82/18/18 84/104/104 57/82/82
f 69/107/107 104/106/106 107/59/59 85/58/58
f 62/93/93 47/76/76 82/18/18 83/17/17
f 75/114/114 90/108/108 88/74/74 73/115/115
f 111/118/118 103/105/105 90/108/108 75/114/114
f 72/119/119 86/77/77 89/94/94 74/120/120
f 73/115/115 88/74/74 86/77/77 72/119/119
f 61/89/89 94/103/103 95/110/110 68/90/90
f 102/111/111 68/90/90 95/110/110 105/109/109
f 48/102/102 92/28/28 94/103/103 61/89/89
f 64/125/125 93/25/25 92/28/28 48/102/102
f 64/125/125 48/102/102 97/101/101 99/124/124
f 80/121/121 98/91/91 101/112/112 112/122/122
f 77/63/63 97/101/101 100/88/88 79/123/123
f 79/123/123 100/88/88 98/91/91 80/121/121
f 2/126/126 113/127/127 96/128/128
f 114/129/129 96/128/128 113/127/127
f 114/129/129 115/130/130 36/131/131 76/132/132
f 116/133/133 70/134/134 36/131/131 115/130/130
f 117/135/135 87/136/136 70/134/134 116/133/133
f 117/135/135 3/137/137 87/136/136
f 81/138/138 117/135/135 116/133/133 43/139/139
f 43/139/139 116/133/133 115/130/130 41/140/140
f 42/141/141 41/140/140 115/130/130 114/129/129
f 42/141/141 113/127/127 91/142/142
f 2/126/126 91/142/142 113/127/127
f 117/135/135 81/138/138 3/137/137
f 42/141/141 114/129/129 113/127/127
f 114/129/129 76/132/132 96/128/128
f 5/4/4 125/6/6 123/67/67 39/66/66
f 26/12/12 149/80/80 39/66/66 32/10/10
f 18/143/143 20/144/144 121/49/49 119/5/5
f 11/11/11 120/14/14 121/49/49 20/144/144
f 33/145/145 9/36/36 120/14/14 122/13/13
f 125/6/6 17/50/50 30/78/78
f 135/8/8 137/53/53 20/144/144 18/143/143
f 126/45/45 133/71/71 31/44/44
f 134/73/73 127/41/41 35/40/40
f 131/33/33 9/36/36 33/145/145 130/146/146
f 128/34/34 132/46/46 17/50/50 19/35/35
f 6/42/42 127/41/41 132/46/46 128/34/34
f 126/45/45 131/33/33 130/146/146 1/147/147
f 17/50/50 132/46/46 129/48/48 30/78/78
f 126/45/45 6/42/42 128/34/34 131/33/33
f 126/45/45 1/147/147 133/71/71
f 134/73/73 24/47/47 127/41/41
f 118/43/43 35/40/40 6/42/42
f 10/57/57 22/54/54 137/53/53 135/8/8
f 12/1/1 136/15/15 137/53/53 22/54/54
f 11/11/11 138/16/16 26/12/12
f 139/9/9 18/143/143 5/4/4
f 12/1/1 27/37/37 124/2/2
f 136/15/15 12/1/1 34/3/3
f 16/23/23 21/99/99 142/56/56 140/24/24
f 14/31/31 141/30/30 142/56/56 21/99/99
f 28/39/39 13/38/38 141/30/30 143/29/29
f 144/21/21 10/57/57 25/7/7
f 53/148/148 29/32/32 145/149/149
f 145/149/149 14/31/31 51/100/100
f 145/149/149 29/32/32 14/31/31
f 4/22/22 50/150/150 146/151/151
f 146/151/151 16/23/23 4/22/22
f 146/151/151 52/97/97 16/23/23
f 125/6/6 119/5/5 17/50/50
f 5/4/4 18/143/143 119/5/5
f 139/9/9 135/8/8 18/143/143
f 40/68/68 24/47/47 134/73/73
f 40/68/68 35/40/40 118/43/43
f 133/71/71 1/147/147 40/68/68
f 139/9/9 149/80/80 38/72/72 25/7/7
f 33/145/145 147/79/79 148/152/152 130/146/146
f 122/13/13 123/67/67 147/79/79 33/145/145
f 40/68/68 148/152/152 129/48/48 24/47/47
f 130/146/146 148/152/152 40/68/68 1/147/147
f 147/79/79 30/78/78 129/48/48 148/152/152
f 149/80/80 26/12/12 138/16/16
f 149/80/80 138/16/16 34/3/3 38/72/72
f 124/2/2 27/37/37 38/72/72
f 143/29/29 150/70/70 28/39/39
f 144/21/21 150/70/70 37/69/69 4/22/22
f 37/69/69 55/96/96 151/92/92
f 151/92/92 152/153/153 4/22/22
f 152/153/153 50/150/150 4/22/22
f 37/69/69 29/32/32 154/95/95
f 29/32/32 53/148/148 153/154/154
f 154/95/95 29/32/32 153/154/154
f 11/11/11 136/15/15 138/16/16
f 11/11/11 20/144/144 137/53/53
f 25/7/7 10/57/57 135/8/8
f 144/21/21 140/24/24 10/57/57
